{
    "asset" : {
        "generator" : "Khronos glTF Blender I/O v1.2.18",
        "version" : "2.0"
    },
    "scene" : 0,
    "scenes" : [
        {
            "name" : "Scene",
            "nodes" : [
                0
            ]
        }
    ],
    "nodes" : [
        {
            "mesh" : 0,
            "name" : "Sphere",
            "scale" : [
                0.2857142984867096,
                0.2857145667076111,
                0.2857142984867096
            ]
        }
    ],
    "materials" : [
        {
            "doubleSided" : true,
            "emissiveFactor" : [
                0,
                0,
                0
            ],
            "name" : "Material.001",
            "pbrMetallicRoughness" : {
                "baseColorFactor" : [
                    0.05724501237273216,
                    0.05724501237273216,
                    0.0516158789396286,
                    1
                ],
                "metallicFactor" : 0,
                "roughnessFactor" : 0.4030303359031677
            }
        }
    ],
    "meshes" : [
        {
            "name" : "Sphere",
            "primitives" : [
                {
                    "attributes" : {
                        "POSITION" : 0,
                        "NORMAL" : 1,
                        "TEXCOORD_0" : 2
                    },
                    "indices" : 3,
                    "material" : 0
                }
            ]
        }
    ],
    "accessors" : [
        {
            "bufferView" : 0,
            "componentType" : 5126,
            "count" : 7936,
            "max" : [
                1.7500001192092896,
                1.999999761581421,
                1.7500001192092896
            ],
            "min" : [
                -1.7499996423721313,
                2.3328902898356318e-07,
                -1.7499998807907104
            ],
            "type" : "VEC3"
        },
        {
            "bufferView" : 1,
            "componentType" : 5126,
            "count" : 7936,
            "type" : "VEC3"
        },
        {
            "bufferView" : 2,
            "componentType" : 5126,
            "count" : 7936,
            "type" : "VEC2"
        },
        {
            "bufferView" : 3,
            "componentType" : 5123,
            "count" : 11904,
            "type" : "SCALAR"
        }
    ],
    "bufferViews" : [
        {
            "buffer" : 0,
            "byteLength" : 95232,
            "byteOffset" : 0
        },
        {
            "buffer" : 0,
            "byteLength" : 95232,
            "byteOffset" : 95232
        },
        {
            "buffer" : 0,
            "byteLength" : 63488,
            "byteOffset" : 190464
        },
        {
            "buffer" : 0,
            "byteLength" : 23808,
            "byteOffset" : 253952
        }
    ],
    "buffers" : [
        {
            "byteLength" : 277760,
            "uri" : "data:application/octet-stream;base64,"
        }
    ]
}
